<?xml version="1.0" standalone="no"?>
<!DOCTYPE svg PUBLIC "-//W3C//DTD SVG 20010904//EN"
 "http://www.w3.org/TR/2001/REC-SVG-20010904/DTD/svg10.dtd">
<svg version="1.0" xmlns="http://www.w3.org/2000/svg"
 width="854.000000pt" height="980.000000pt" viewBox="0 0 854.000000 980.000000"
 preserveAspectRatio="xMidYMid meet">

<g transform="translate(0.000000,980.000000) scale(0.100000,-0.100000)"
fill="#000000" stroke="none">
<path d="M4055 9794 c-238 -35 -427 -110 -599 -238 -235 -174 -374 -381 -472
-703 -3 -10 -95 -13 -419 -13 l-415 0 0 -154 0 -154 -372 -5 c-399 -5 -467
-11 -643 -62 -484 -141 -874 -509 -1039 -982 -19 -56 -45 -148 -58 -205 l-23
-103 0 -2910 0 -2910 22 -104 c120 -552 514 -996 1038 -1169 254 -84 -44 -77
3205 -77 l2885 0 105 23 c333 73 571 202 800 431 226 227 356 463 433 783 l22
93 2 2885 c3 2855 3 2886 -17 3004 -100 593 -529 1074 -1105 1241 -185 53
-236 58 -722 62 l-453 5 0 154 0 154 -414 0 -415 0 -25 83 c-14 45 -47 127
-74 182 -172 348 -485 590 -867 670 -77 16 -317 28 -380 19z m295 -586 c25 -5
87 -30 138 -54 131 -63 230 -161 296 -294 62 -126 76 -205 76 -421 l0 -169
395 0 395 0 0 -665 0 -665 -1460 0 -1460 0 0 665 0 665 395 0 395 0 0 163 c1
240 27 358 111 487 153 237 443 353 719 288z m-2198 -2050 l3 -793 2035 0
2035 0 3 793 2 793 463 -3 462 -4 90 -27 c371 -115 629 -402 699 -778 15 -76
16 -368 13 -2914 l-2 -2830 -23 -76 c-56 -195 -137 -333 -274 -465 -128 -125
-264 -202 -447 -252 l-96 -27 -2840 0 -2840 0 -88 22 c-193 50 -359 145 -487
279 -126 133 -209 281 -252 450 l-23 89 0 2850 0 2850 22 81 c90 339 317 589
638 703 126 45 172 49 547 50 l358 1 2 -792z"/>
<path d="M6230 5960 c-24 -12 -59 -32 -76 -45 -22 -17 -374 -562 -1030 -1592
-549 -863 -1017 -1598 -1041 -1635 l-43 -68 -685 548 c-401 319 -703 554 -728
564 -49 20 -143 23 -197 7 -63 -19 -131 -78 -164 -143 -25 -47 -30 -70 -30
-124 0 -69 25 -144 62 -186 9 -10 390 -317 845 -682 619 -495 839 -666 874
-678 102 -35 218 -8 290 66 49 51 2280 3555 2301 3613 18 52 11 168 -12 215
-25 49 -83 108 -131 133 -60 31 -176 34 -235 7z"/>
</g>
</svg>
