<?xml version="1.0" standalone="no"?>
<!DOCTYPE svg PUBLIC "-//W3C//DTD SVG 20010904//EN"
 "http://www.w3.org/TR/2001/REC-SVG-20010904/DTD/svg10.dtd">
<svg version="1.0" xmlns="http://www.w3.org/2000/svg"
 width="438.000000pt" height="438.000000pt" viewBox="0 0 438.000000 438.000000"
 preserveAspectRatio="xMidYMid meet">

<g transform="translate(0.000000,438.000000) scale(0.100000,-0.100000)"
fill="#000000" stroke="none">
<path d="M2060 4370 c0 -5 -8 -10 -18 -10 -11 0 -48 -14 -83 -32 -78 -39 -178
-137 -210 -206 l-23 -50 -177 -4 c-236 -4 -232 -2 -239 -154 l-5 -109 -250 -5
c-226 -5 -255 -7 -303 -27 -115 -46 -204 -139 -255 -264 l-22 -54 -3 -1549
c-3 -1718 -6 -1616 63 -1721 41 -61 115 -121 196 -159 l56 -26 1416 0 c938 0
1417 3 1417 10 0 6 5 10 11 10 21 0 110 50 153 85 23 20 57 61 75 90 65 107
62 9 59 1712 l-3 1548 -22 55 c-35 83 -88 153 -153 201 -110 80 -123 83 -405
89 l-250 5 -5 108 c-4 93 -8 111 -25 123 -36 26 -89 34 -245 34 l-155 1 -23
49 c-46 98 -153 192 -256 226 -28 9 -55 20 -60 25 -14 13 -256 12 -256 -1z
m231 -214 c85 -36 146 -107 173 -200 9 -28 27 -63 41 -76 26 -24 32 -25 196
-28 l169 -3 0 -205 0 -204 -675 0 -675 0 0 204 0 205 159 3 c153 3 161 4 185
27 14 14 33 48 42 76 55 173 232 266 385 201z m-981 -717 l0 -151 31 -29 31
-29 815 0 c874 0 856 -1 883 49 5 11 10 85 10 165 l0 146 211 0 c132 0 226 -4
250 -12 50 -15 114 -69 139 -119 20 -38 20 -62 18 -1589 l-3 -1551 -46 -44
c-26 -24 -63 -48 -85 -54 -27 -8 -445 -11 -1370 -11 -1458 0 -1383 -3 -1447
58 -61 58 -57 -57 -57 1614 0 1472 1 1535 19 1573 10 22 34 55 52 72 59 56 90
62 332 62 l217 1 0 -151z"/>
<path d="M1493 2740 l-178 -169 -85 84 c-95 94 -126 108 -179 80 -40 -20 -65
-74 -55 -118 5 -22 46 -71 137 -164 139 -141 168 -159 220 -131 39 20 447 409
464 442 35 67 -20 146 -102 146 -43 0 -47 -3 -222 -170z"/>
<path d="M2044 2644 c-65 -32 -77 -115 -25 -168 l31 -31 603 -3 c331 -2 621 0
644 3 77 11 120 82 89 147 -34 71 -4 68 -693 68 -535 0 -622 -3 -649 -16z"/>
<path d="M1680 2073 c-17 -6 -93 -76 -251 -230 -58 -57 -109 -103 -112 -103
-4 0 -44 38 -89 85 -78 80 -86 85 -124 85 -78 0 -130 -74 -100 -142 8 -18 70
-90 138 -160 119 -123 125 -128 165 -128 51 0 51 0 310 248 224 215 234 230
194 295 -29 48 -82 68 -131 50z"/>
<path d="M2027 1800 c-36 -29 -50 -83 -32 -126 27 -66 7 -64 697 -64 592 0
625 1 654 19 37 22 59 70 50 107 -4 15 -20 39 -36 55 l-28 29 -640 0 c-629 0
-640 0 -665 -20z"/>
<path d="M1493 1071 l-178 -170 -91 90 c-98 96 -117 104 -175 73 -17 -8 -37
-30 -45 -49 -26 -63 -12 -89 124 -227 141 -144 171 -161 227 -131 47 25 452
411 466 445 27 66 -28 138 -107 138 -43 0 -46 -3 -221 -169z"/>
<path d="M2033 970 c-41 -25 -58 -79 -39 -125 29 -68 -8 -65 697 -65 l637 0
30 25 c38 32 48 72 28 118 -28 69 -5 67 -698 67 -599 0 -624 -1 -655 -20z"/>
</g>
</svg>
