<?xml version="1.0" standalone="no"?>
<!DOCTYPE svg PUBLIC "-//W3C//DTD SVG 20010904//EN"
 "http://www.w3.org/TR/2001/REC-SVG-20010904/DTD/svg10.dtd">
<svg version="1.0" xmlns="http://www.w3.org/2000/svg"
 width="612.000000pt" height="612.000000pt" viewBox="0 0 612.000000 612.000000"
 preserveAspectRatio="xMidYMid meet">

<g transform="translate(0.000000,612.000000) scale(0.100000,-0.100000)"
fill="#000000" stroke="none">
<path d="M4080 4783 c-191 -332 -261 -454 -267 -469 -4 -12 107 -14 811 -14
l816 0 0 340 0 340 -623 0 -623 0 -114 -197z"/>
<path d="M3800 4085 l0 -125 500 0 500 0 0 -780 0 -780 -500 0 -500 0 0 -455
0 -455 820 0 820 0 0 1360 0 1360 -820 0 -820 0 0 -125z"/>
<path d="M4262 3690 c-43 -18 -93 -63 -114 -103 -31 -62 -23 -163 18 -214 69
-87 196 -109 283 -49 49 34 91 113 91 170 -1 79 -56 158 -132 190 -41 18 -110
20 -146 6z"/>
<path d="M4409 3220 c-51 -15 -81 -44 -194 -191 l-115 -148 -147 -48 c-159
-52 -199 -76 -209 -127 -10 -59 44 -126 102 -126 31 0 359 110 381 127 12 10
35 35 52 56 35 45 33 51 57 -130 l18 -133 179 0 c165 0 178 1 173 18 -2 9 -21
139 -41 287 -20 149 -43 289 -51 312 -17 48 -62 86 -119 102 -45 12 -50 12
-86 1z"/>
<path d="M1570 3185 c-225 -25 -298 -49 -388 -130 -54 -49 -121 -143 -149
-210 l-18 -45 -110 0 c-128 0 -183 -19 -209 -69 -39 -74 0 -140 99 -170 22 -7
46 -14 53 -17 8 -2 -3 -19 -29 -45 -22 -22 -54 -69 -70 -103 -57 -122 -61
-164 -66 -702 l-5 -491 25 -29 25 -29 196 0 c190 0 196 1 218 23 19 19 24 36
28 105 3 57 9 82 18 81 6 -1 395 -2 862 -2 l850 -2 0 -74 c0 -65 3 -79 24
-103 l24 -28 197 0 197 0 25 29 24 29 -4 501 c-3 432 -6 511 -21 576 -22 93
-67 179 -117 225 l-38 34 64 21 c42 14 73 32 90 51 49 59 24 144 -51 175 -22
9 -72 14 -143 14 l-110 0 -38 77 c-49 100 -156 212 -237 249 -63 28 -155 47
-320 63 -148 15 -751 12 -896 -4z m775 -135 c198 -13 334 -34 386 -61 52 -26
106 -82 149 -157 40 -67 116 -249 108 -257 -3 -3 -70 -1 -149 5 -356 27 -1342
23 -1688 -7 l-73 -6 7 24 c4 13 33 80 63 149 48 106 65 134 117 186 68 69 108
86 245 105 206 27 568 36 835 19z m-1284 -815 c152 -35 211 -60 224 -93 11
-28 65 -216 65 -227 0 -7 -63 -5 -190 7 -160 14 -198 21 -233 40 -63 35 -87
78 -87 157 0 78 24 151 51 151 10 0 86 -16 170 -35z m2154 2 c21 -51 28 -128
16 -174 -13 -49 -62 -99 -110 -114 -41 -12 -283 -38 -353 -39 l-47 0 26 93
c14 50 28 102 30 114 10 43 65 79 149 98 44 9 111 25 149 35 107 28 123 26
140 -13z m-835 -48 c96 -7 157 -16 180 -27 31 -15 35 -22 38 -61 2 -28 -6 -76
-23 -128 -29 -95 -41 -105 -146 -123 -99 -18 -524 -24 -674 -11 -143 12 -196
24 -219 47 -19 18 -55 132 -63 194 -10 87 41 104 362 119 175 9 323 6 545 -10z
m31 -519 c16 -9 19 -22 19 -80 0 -58 -3 -71 -19 -80 -13 -6 -150 -10 -377 -10
-417 0 -394 -6 -394 96 0 49 4 65 18 73 24 14 727 15 753 1z"/>
<path d="M3800 1265 l0 -125 820 0 820 0 0 125 0 125 -820 0 -820 0 0 -125z"/>
</g>
</svg>
