<?xml version="1.0" standalone="no"?>
<!DOCTYPE svg PUBLIC "-//W3C//DTD SVG 20010904//EN"
 "http://www.w3.org/TR/2001/REC-SVG-20010904/DTD/svg10.dtd">
<svg version="1.0" xmlns="http://www.w3.org/2000/svg"
 width="474.000000pt" height="544.000000pt" viewBox="0 0 474.000000 544.000000"
 preserveAspectRatio="xMidYMid meet">

<g transform="translate(0.000000,544.000000) scale(0.100000,-0.100000)"
fill="#000000" stroke="none">
<path d="M2210 5432 c0 -4 -26 -13 -57 -20 -31 -6 -95 -31 -141 -54 -149 -73
-292 -238 -339 -390 l-17 -58 -227 0 c-257 0 -243 5 -239 -83 2 -23 2 -54 1
-68 l-1 -27 -232 -4 c-266 -6 -327 -17 -470 -88 -227 -114 -395 -318 -455
-555 -10 -38 -21 -71 -25 -73 -11 -5 -10 -3276 1 -3287 4 -6 16 -41 25 -79 47
-194 179 -376 357 -495 85 -57 220 -115 299 -127 22 -4 40 -10 40 -15 0 -5
711 -9 1635 -9 1083 0 1635 3 1635 10 0 6 12 10 26 10 44 0 205 59 276 101
210 124 382 362 413 574 4 25 11 45 16 45 5 0 9 687 9 1625 0 1077 -3 1625
-10 1625 -5 0 -10 10 -10 23 0 36 -37 154 -70 225 -87 187 -260 348 -460 429
-128 51 -160 56 -455 62 l-280 6 -3 88 -3 87 -227 0 -227 0 -25 71 c-47 138
-161 277 -295 358 -55 33 -182 81 -216 81 -10 0 -19 5 -19 10 0 6 -45 10 -115
10 -63 0 -115 -4 -115 -8z m240 -337 c62 -21 135 -77 173 -131 53 -75 68 -126
74 -256 l6 -118 219 0 218 0 0 -370 0 -370 -815 0 -815 0 2 368 3 367 218 3
217 2 1 68 c1 37 1 70 1 73 -1 4 3 35 9 69 37 233 268 373 489 295z m-1255
-1122 l0 -438 1128 -3 1127 -2 0 440 0 440 248 0 c190 0 261 -4 307 -15 185
-49 348 -213 397 -400 10 -40 13 -362 13 -1630 0 -1505 -1 -1583 -18 -1640
-57 -184 -186 -316 -374 -383 -44 -15 -172 -17 -1620 -19 -1730 -4 -1645 -6
-1779 58 -141 67 -265 230 -293 383 -8 41 -11 547 -11 1610 0 1347 2 1559 15
1615 35 146 142 285 273 354 111 59 152 66 382 66 l205 1 0 -437z"/>
<path d="M2147 3194 c-44 -8 -113 -26 -155 -40 -405 -135 -691 -460 -784 -889
-17 -78 -17 -352 0 -430 64 -294 223 -545 457 -720 83 -62 263 -150 367 -180
226 -63 471 -58 690 16 343 114 622 398 737 749 71 217 68 500 -8 724 -138
404 -482 697 -908 771 -105 18 -292 18 -396 -1z m426 -273 c172 -45 356 -160
466 -293 299 -362 275 -885 -56 -1212 -361 -358 -941 -347 -1286 25 -276 296
-322 733 -114 1071 149 241 377 388 672 432 62 9 242 -4 318 -23z"/>
<path d="M2252 2614 l-22 -15 0 -359 0 -360 24 -15 c22 -14 71 -16 383 -16
351 1 358 2 376 22 30 37 20 147 -17 171 -6 4 -131 8 -278 8 l-268 0 0 274 c0
321 6 306 -110 306 -43 0 -73 -5 -88 -16z"/>
</g>
</svg>
